# xmcd
# 
# Track frame offsets:
#     150
#     16252
#     31700
#     51217
#     73407
#     99412
#     120045
#     145622
#     173220
# 
# Disc length: 2522
# 
# Revision: 2
# Processed by: cddbd v1.5.2PL0 Copyright (c) Steve Scherf et al.
# Submitted via: BonkEnc v1.0.8
# 
DISCID=6a09d809
DTITLE=小沢健二 - 刹那
DYEAR=2003
DGENRE=Pop
TTITLE0=流星ビバップ
TTITLE1=痛快ウキウキ通り
TTITLE2=さよならなんて云えないよ(美しさ)
TTITLE3=夢が夢なら
TTITLE4=強い気持ち・強い愛
TTITLE5=それはちょっと
TTITLE6=夜と日時計
TTITLE7=いちょう並木のセレナーデ
TTITLE8=流星ビバップ
EXTD=YEAR: 2003
EXTT0=
EXTT1=
EXTT2=
EXTT3=
EXTT4=
EXTT5=
EXTT6=
EXTT7=
EXTT8=
PLAYORDER=
